<svg width="360" height="205" viewBox="0 0 360 205" fill="none" xmlns="http://www.w3.org/2000/svg">
<path d="M71.0294 35.3887C68.786 34.5663 66.9125 33.4479 65.4089 32.0332C63.9126 30.5986 62.8632 28.9983 62.2609 27.2325C61.6658 25.4466 61.5749 23.6182 61.988 21.7475L65.9539 23.2012C65.7484 24.4438 65.8583 25.6315 66.2837 26.7644C66.7091 27.8974 67.4246 28.9208 68.4301 29.8348C69.443 30.7287 70.7206 31.4583 72.2629 32.0236C74.0857 32.6918 75.7828 32.9277 77.3545 32.7313C78.9261 32.5348 80.3 31.9479 81.4763 30.9703C82.6527 29.9928 83.5529 28.6527 84.177 26.9502C84.8011 25.2477 84.9802 23.6433 84.7143 22.1371C84.4485 20.6309 83.7794 19.295 82.7071 18.1294C81.6347 16.9638 80.1872 16.0469 78.3645 15.3787C76.8422 14.8207 75.4021 14.5655 74.0441 14.613C72.6934 14.6405 71.4897 14.949 70.4328 15.5386C69.3834 16.1082 68.5218 16.9399 67.8483 18.0335L63.8823 16.5797C64.7835 14.8651 66.0346 13.5287 67.6355 12.5705C69.2364 11.6123 71.0677 11.0794 73.1294 10.9717C75.1984 10.844 77.3546 11.1913 79.598 12.0137C82.1618 12.9535 84.2153 14.2629 85.7583 15.9419C87.3214 17.6283 88.3107 19.5473 88.7262 21.6991C89.169 23.8382 88.9646 26.0695 88.1129 28.393C87.2611 30.7165 85.9714 32.5613 84.2437 33.9274C82.5433 35.2809 80.5518 36.0959 78.2691 36.3725C76.0065 36.6565 73.5932 36.3285 71.0294 35.3887ZM85.462 29.0231L70.9503 23.7036L71.9856 20.8793L86.4973 26.1989L85.462 29.0231ZM84.4787 39.8417L96.2384 33.1438L95.5035 35.0557L91.1931 23.0124L95.6698 24.6534L98.9654 33.7004L97.313 33.0947L105.705 28.332L110.031 29.9179L98.7864 36.3273L99.4622 34.0189L104.278 47.0996L99.8017 45.4586L96.1635 35.6726L97.8761 36.3003L88.8353 41.4386L84.4787 39.8417ZM103.765 51.6146L108.23 47.1507L107.922 48.6399C107.462 48.471 107.081 48.2067 106.782 47.8468C106.502 47.4943 106.318 47.0974 106.23 46.6561C106.149 46.1948 106.189 45.7438 106.351 45.3031C106.52 44.8425 106.78 44.4722 107.133 44.1924C107.485 43.9127 107.879 43.7387 108.313 43.6706C108.774 43.5898 109.235 43.6338 109.696 43.8027C110.176 43.9789 110.557 44.2432 110.836 44.5957C111.136 44.9556 111.316 45.3625 111.377 45.8165C111.458 46.2778 111.41 46.7488 111.234 47.2296C111.065 47.6902 110.785 48.1443 110.394 48.5916C110.01 49.0189 109.417 49.5514 108.616 50.1891L105.928 52.4076L103.765 51.6146Z" fill="white"/>
<path d="M357.5 96.0851C357.5 119.649 350.828 133.37 340.496 140.582C330.047 147.876 315.144 149.034 297.545 145.775C263.656 139.498 221.761 117.22 188.484 96.3388C193.822 93.663 199.115 90.9898 204.35 88.3454C220.792 80.0401 236.672 72.0192 251.639 65.0954C272.563 55.4167 291.471 47.9956 307.361 44.9858C323.292 41.9681 335.591 43.4916 343.948 50.883C352.356 58.3198 357.5 72.324 357.5 96.0851ZM61.7566 43.7555C96.0889 49.2165 139.825 71.6508 178.322 95.8302C176.27 96.8575 174.206 97.8921 172.133 98.9315C134.351 117.873 93.4232 138.392 60.9998 144.706C43.3191 148.149 28.8073 147.229 18.7581 140.183C8.82141 133.215 2.5 119.702 2.5 96.085C2.5 72.4974 8.9207 58.2879 19.0906 50.5321C29.3324 42.7215 44.0373 40.9371 61.7566 43.7555Z" stroke="#FAFAFA" stroke-width="5"/>
<path d="M201.362 118.783L195.274 133.416L191.913 132.017L197.56 118.445L198.477 120.616L186.43 115.604L188.615 114.724L182.969 128.296L179.608 126.898L185.696 112.266L201.362 118.783ZM204.933 120.269L208.294 121.667L206.175 126.76L205.805 127.213L204.579 130.16L204.357 131.129L200.431 140.565L197.071 139.167L204.933 120.269ZM203.957 128.446C204.93 127.031 206.032 125.912 207.264 125.09C208.503 124.251 209.806 123.742 211.174 123.564C212.56 123.392 213.934 123.589 215.295 124.156C216.726 124.751 217.856 125.605 218.687 126.719C219.524 127.816 220.013 129.071 220.153 130.483C220.3 131.879 220.055 133.344 219.417 134.878C218.786 136.394 217.92 137.601 216.819 138.497C215.718 139.394 214.48 139.94 213.104 140.136C211.736 140.315 210.337 140.107 208.906 139.512C207.545 138.945 206.445 138.114 205.607 137.017C204.77 135.921 204.203 134.634 203.908 133.156C203.63 131.686 203.647 130.116 203.957 128.446ZM216.004 133.458C216.413 132.476 216.565 131.528 216.459 130.615C216.378 129.691 216.071 128.876 215.536 128.168C215.009 127.443 214.289 126.891 213.375 126.511C212.462 126.131 211.51 125.988 210.521 126.082C209.556 126.165 208.614 126.461 207.696 126.968C206.784 127.459 205.934 128.116 205.147 128.941C205.117 130.081 205.246 131.155 205.534 132.165C205.829 133.157 206.283 134.033 206.896 134.794C207.534 135.544 208.31 136.11 209.223 136.49C210.137 136.87 211.033 137 211.912 136.88C212.797 136.743 213.593 136.387 214.298 135.811C215.027 135.225 215.596 134.44 216.004 133.458ZM227.109 147.085C225.334 146.347 223.907 145.379 222.828 144.182C221.774 142.975 221.107 141.636 220.829 140.166C220.569 138.703 220.754 137.213 221.385 135.697C222.023 134.163 222.949 132.981 224.164 132.152C225.402 131.313 226.818 130.85 228.41 130.765C230.027 130.669 231.723 130.991 233.498 131.729C235.273 132.468 236.688 133.441 237.743 134.648C238.822 135.845 239.492 137.175 239.752 138.638C240.037 140.091 239.861 141.584 239.223 143.118C238.592 144.635 237.657 145.812 236.418 146.652C235.197 147.498 233.777 147.969 232.161 148.065C230.568 148.15 228.884 147.824 227.109 147.085ZM228.206 144.448C229.344 144.922 230.404 145.12 231.386 145.043C232.385 144.974 233.263 144.662 234.019 144.107C234.783 143.535 235.38 142.732 235.81 141.698C236.24 140.664 236.386 139.683 236.246 138.756C236.113 137.811 235.719 136.96 235.064 136.202C234.426 135.451 233.539 134.839 232.401 134.366C231.281 133.9 230.221 133.702 229.222 133.771C228.222 133.841 227.341 134.161 226.577 134.733C225.821 135.288 225.228 136.082 224.797 137.116C224.367 138.15 224.218 139.14 224.351 140.084C224.491 141.012 224.888 141.855 225.543 142.612C226.198 143.37 227.086 143.982 228.206 144.448ZM238.911 151.571L244.998 136.938L248.359 138.337L243.454 150.125L242.597 149.344L256.683 141.8L260.509 143.392L242.013 152.861L238.911 151.571ZM250.958 156.583L249.419 147.451L252.654 146.31L254.887 158.218L250.958 156.583ZM269.576 164.329L271.266 158.663L272.723 157.056L272.826 154.915L275.664 149.697L279.128 151.138L275.309 158.131L273.04 165.77L269.576 164.329ZM273.654 157.443C272.688 158.841 271.586 159.959 270.347 160.798C269.109 161.638 267.797 162.143 266.411 162.315C265.043 162.493 263.678 162.3 262.316 161.733C260.886 161.138 259.752 160.292 258.914 159.195C258.083 158.082 257.598 156.818 257.458 155.405C257.318 153.993 257.564 152.528 258.195 151.011C258.833 149.477 259.699 148.271 260.792 147.391C261.893 146.495 263.128 145.957 264.496 145.778C265.872 145.582 267.275 145.782 268.705 146.377C270.067 146.944 271.166 147.775 272.004 148.872C272.859 149.975 273.425 151.262 273.703 152.733C274.006 154.193 273.989 155.763 273.654 157.443ZM261.607 152.431C261.198 153.413 261.034 154.366 261.115 155.289C261.221 156.203 261.537 157.022 262.064 157.746C262.599 158.454 263.323 158.998 264.236 159.378C265.167 159.765 266.115 159.917 267.08 159.833C268.052 159.732 268.993 159.436 269.905 158.946C270.841 158.446 271.694 157.78 272.465 156.948C272.512 155.815 272.379 154.749 272.067 153.75C271.779 152.741 271.325 151.864 270.704 151.121C270.091 150.36 269.319 149.786 268.388 149.399C267.474 149.019 266.575 148.897 265.689 149.034C264.81 149.154 264.006 149.507 263.277 150.093C262.572 150.669 262.016 151.449 261.607 152.431ZM283.456 164.797C281.457 163.965 280.158 162.787 279.558 161.264C278.966 159.724 279.107 157.902 279.982 155.8L281.509 152.129L284.844 153.516L283.37 157.058C282.295 159.643 282.972 161.441 285.402 162.452C286.402 162.868 287.438 163.026 288.51 162.927C289.6 162.834 290.709 162.477 291.838 161.854L291.055 164.319C290.043 165.05 288.862 165.459 287.512 165.544C286.187 165.619 284.835 165.37 283.456 164.797ZM287.262 171.687L293.349 157.055L296.71 158.453L290.622 173.085L287.262 171.687ZM295.79 180.664C294.928 180.305 294.19 179.867 293.577 179.349C292.974 178.855 292.449 178.293 292.004 177.663L293.069 175.104C293.551 175.79 294.046 176.35 294.554 176.783C295.078 177.224 295.711 177.598 296.452 177.906C297.158 178.2 297.855 178.298 298.543 178.2C299.224 178.12 299.91 177.758 300.602 177.116L313.239 165.33L316.806 166.814L302.714 179.329C301.941 180.019 301.163 180.504 300.38 180.784C299.606 181.089 298.833 181.222 298.06 181.184C297.305 181.152 296.548 180.979 295.79 180.664ZM299.589 176.27L298.762 159.307L302.458 160.845L302.924 177.657L299.589 176.27ZM320.849 162.916L324.313 164.357L318.156 177.626L315.778 176.637L320.849 162.916ZM314.429 183.232C313.825 182.981 313.401 182.593 313.155 182.066C312.916 181.522 312.919 180.957 313.163 180.371C313.407 179.785 313.802 179.393 314.349 179.196C314.903 178.982 315.482 179 316.085 179.251C316.705 179.509 317.126 179.907 317.348 180.444C317.594 180.971 317.595 181.527 317.351 182.113C317.107 182.699 316.708 183.099 316.154 183.313C315.624 183.518 315.049 183.491 314.429 183.232Z" fill="white"/>
<rect x="45" y="141.538" width="98.2213" height="15" transform="rotate(-19.6126 45 141.538)" fill="#545C45"/>
<path d="M45.5245 124.47C45.3114 124.984 45.346 125.122 45.9883 126.848C46.6307 128.575 46.6949 128.702 47.1922 128.952C47.6808 129.224 47.8054 129.196 49.3297 128.629L50.9577 128.023L51.6761 129.003C52.6649 130.393 52.6711 130.41 51.8275 130.723C50.466 131.23 50.4698 131.512 51.7853 137.222C52.762 141.432 53.659 144.16 54.4763 145.405C56.2231 148.063 58.9525 149.466 62.8259 149.688C63.8473 149.762 64.495 149.918 65.3637 150.35C69.1048 152.209 73.3511 150.761 74.9812 147.037L75.3619 146.158L92.5739 139.754L109.786 133.35L110.648 133.766C112.269 134.543 114.43 134.646 116.058 134.041C117.686 133.435 119.254 131.944 119.972 130.297L120.353 129.419L125.637 127.453L130.92 125.487L131.121 124.94C131.575 123.807 130.509 122.616 129.399 123.029C129.118 123.134 128.875 123.205 128.862 123.172C128.85 123.139 128.83 121.862 128.812 120.319C128.794 118.776 128.711 117.332 128.625 117.1C128.501 116.768 127.919 116.38 126.232 115.514C121.145 112.89 115.302 112.04 109.113 113.02C106.836 113.376 102.856 114.497 101.446 115.192L100.373 115.704L98.218 114.938C94.3378 113.566 90.068 112.641 87.2468 112.575C84.9882 112.527 83.846 112.763 80.4125 114.041C74.8478 116.111 72.9943 117.198 68.135 121.254C64.5026 124.307 61.9797 126.039 58.9842 127.588L58.1185 128.024L57.2273 127.032L56.33 126.025L57.2032 125.7C57.9432 125.424 58.1257 125.281 58.2919 124.822C58.4878 124.352 58.4581 124.137 58.0752 123.107C57.6922 122.078 57.5737 121.895 57.1184 121.668C56.8395 121.507 56.52 121.418 56.4164 121.457C56.3128 121.495 54.0113 122.011 51.3151 122.599C48.6188 123.186 46.2581 123.724 46.0657 123.796C45.8733 123.867 45.6304 124.166 45.5245 124.47ZM85.7952 115.421C88.9418 115.138 93.8432 116.131 98.8376 118.052L100.495 118.702L102.153 117.953C106.198 116.145 112.313 115.099 116.376 115.515C117.288 115.61 117.288 115.61 117.572 116.374C117.733 116.805 117.986 117.259 118.128 117.414C118.278 117.547 119.216 117.803 120.217 117.96C121.956 118.239 122.051 118.223 123.053 117.793L124.086 117.352L125.164 117.896L126.257 118.434L126.233 119.048L126.229 119.673L125.105 120.091C124.113 120.46 123.954 120.576 123.779 121.057C123.29 122.278 124.391 123.381 125.634 122.918L126.285 122.676L126.31 123.423L126.321 124.175L123.553 125.204L120.786 126.234L120.657 125.299C119.994 120.122 114.598 116.441 110.128 118.104C105.659 119.767 103.981 126.08 106.863 130.431L107.377 131.223L91.5857 137.098L75.7944 142.973L75.6656 142.038C75.1058 137.635 71.0838 134.161 66.9318 134.459C61.9658 134.832 58.9639 140.712 61.1574 145.792C61.3698 146.318 61.5218 146.772 61.4774 146.788C61.4182 146.81 60.863 146.676 60.2387 146.493C58.2314 145.898 56.9801 144.889 56.1626 143.19C55.6575 142.15 54.6886 138.73 54.0061 135.583L53.4978 133.22L55.3786 132.388C61.979 129.479 64.8288 127.719 69.714 123.596C72.3871 121.317 74.0456 120.114 75.7437 119.198C77.6811 118.156 77.7785 118.101 81.2503 116.791C84.0055 115.728 84.69 115.53 85.7952 115.421ZM68.6134 137.348C69.8274 137.577 70.4838 137.938 71.5242 138.968C72.1154 139.561 72.3043 139.887 72.749 141.082C73.2456 142.372 73.2753 142.588 73.1748 143.721C73.0447 145.092 72.7564 145.767 71.8935 146.844C71.393 147.446 71.1069 147.628 70.0413 148.024C68.9757 148.421 68.6402 148.47 67.868 148.341C66.5109 148.09 65.8521 147.768 64.8573 146.816C64.0403 146.023 63.9218 145.841 63.4548 144.54C62.8372 142.88 62.8218 141.752 63.3823 140.315C64.2446 138.104 66.3201 136.935 68.6134 137.348ZM113.605 120.609C114.819 120.838 115.475 121.198 116.515 122.229C117.107 122.821 117.295 123.148 117.74 124.343C118.237 125.633 118.266 125.848 118.166 126.982C118.036 128.353 117.748 129.027 116.885 130.104C116.384 130.706 116.098 130.888 115.032 131.285C113.967 131.681 113.631 131.731 112.859 131.602C111.502 131.351 110.843 131.029 109.848 130.076C109.031 129.284 108.913 129.102 108.446 127.801C107.872 126.257 107.829 125.328 108.223 123.896C108.445 123.134 109.358 121.83 110.047 121.328C110.875 120.699 112.433 120.403 113.605 120.609Z" fill="#FAFAFA"/>
<path d="M78.3038 119.739C76.6957 120.488 75.0198 121.509 73.6918 122.513C71.6104 124.119 68.8855 126.531 68.7389 126.907C68.5061 127.504 68.8631 128.373 69.48 128.673C69.9563 128.911 70.404 128.801 83.2496 125.288C90.5647 123.304 96.6723 121.561 96.8462 121.439C97.0201 121.318 97.1667 120.942 97.1763 120.56C97.2239 119.465 96.7821 119.138 94.2073 118.377C91.5757 117.598 88.6026 117.079 86.7251 117.059C85.4903 117.046 85.1968 117.118 82.6327 118.015C81.1169 118.56 79.1609 119.326 78.3038 119.739Z" fill="#FAFAFA"/>
<path d="M86.9734 127.191C86.8378 127.506 86.8257 127.927 86.9307 128.209C87.2766 129.139 87.6973 129.228 90.8724 129.067C92.5105 128.987 93.9142 128.956 94.0129 128.995C94.0968 129.039 93.9021 129.376 93.568 129.746L92.9615 130.425L88.4604 130.645C85.9748 130.757 83.8408 130.908 83.6929 130.963C83.2785 131.117 82.9792 132.079 83.183 132.627C83.5474 133.607 83.8337 133.651 89.0662 133.405C91.7837 133.283 94.0904 133.143 94.2236 133.093C94.6379 132.939 98.6531 128.062 98.6923 127.669C98.6984 127.459 98.6489 127.1 98.5686 126.884C98.235 125.988 97.8686 125.954 92.7458 126.178C90.058 126.289 87.7069 126.446 87.5145 126.518C87.3221 126.589 87.0793 126.887 86.9734 127.191Z" fill="#FAFAFA"/>
<path d="M76.6158 135.581C76.4199 136.051 76.4496 136.266 76.8326 137.295C77.2155 138.325 77.334 138.507 77.7893 138.735C78.236 138.985 78.4321 138.968 79.3497 138.627C80.2673 138.285 80.4263 138.17 80.6013 137.689C80.7971 137.219 80.7674 137.003 80.3845 135.974C80.0015 134.945 79.883 134.762 79.4277 134.535C78.9811 134.285 78.7849 134.301 77.8673 134.643C76.9498 134.984 76.7907 135.1 76.6158 135.581Z" fill="#FAFAFA"/>
<path d="M66.2379 140.746C65.0149 142.032 65.4873 144.389 67.1444 145.265C68.5079 145.986 69.8694 145.48 70.43 144.043C71.4992 141.302 68.1883 138.697 66.2379 140.746Z" fill="#FAFAFA"/>
<path d="M111.229 124.006C110.006 125.293 110.479 127.65 112.136 128.526C113.499 129.247 114.861 128.741 115.421 127.304C116.49 124.562 113.179 121.958 111.229 124.006Z" fill="#FAFAFA"/>
<rect x="201" y="83.7695" width="11" height="13" transform="rotate(-31.6342 201 83.7695)" fill="#545C45"/>
<rect x="223" y="71.7695" width="11" height="13" transform="rotate(-31.6342 223 71.7695)" fill="#545C45"/>
<rect x="246" y="60.7695" width="11" height="13" transform="rotate(-31.6342 246 60.7695)" fill="#545C45"/>
<rect x="268" y="49.7695" width="11" height="13" transform="rotate(-31.6342 268 49.7695)" fill="#545C45"/>
</svg>
