<svg width="147" height="68" viewBox="0 0 147 68" fill="none" xmlns="http://www.w3.org/2000/svg">
<path d="M61.6 56H4.4C1.97083 56 0 54.0292 0 51.6V16.4C0 13.9708 1.97083 12 4.4 12H61.6C64.0292 12 66 13.9708 66 16.4V51.6C66 54.0292 64.0292 56 61.6 56ZM32.7067 39.0637L32.0485 43.1887C33.4968 43.8083 35.1817 44.1695 36.9508 44.1695C37.092 44.1695 37.2313 44.1677 37.3707 44.1622H37.3505C37.5118 44.1713 37.6988 44.1768 37.8895 44.1768C39.9227 44.1768 41.8073 43.5388 43.3547 42.4517L43.3235 42.4718C44.7278 41.4305 45.6298 39.7787 45.6298 37.916C45.6298 37.9068 45.6298 37.8977 45.6298 37.8885C45.6298 35.8718 44.2805 34.198 41.6203 32.9037C40.8393 32.5223 40.172 32.1227 39.545 31.6717L39.5872 31.701C39.2242 31.4627 38.9822 31.0685 38.9583 30.6157V30.612C38.9877 30.1353 39.2608 29.7283 39.6532 29.512L39.6605 29.5083C40.1775 29.2077 40.7972 29.0298 41.4608 29.0298C41.5378 29.0298 41.6148 29.0317 41.6918 29.0372H41.6808H41.8275C41.8697 29.0372 41.9192 29.0353 41.9687 29.0353C43.1493 29.0353 44.2695 29.2902 45.2797 29.7467L45.2283 29.7265L45.6573 29.9557L46.3155 25.9755C45.078 25.486 43.6425 25.2018 42.141 25.2018C42.1117 25.2018 42.0805 25.2018 42.0512 25.2018H42.0567C41.9393 25.1963 41.8018 25.1927 41.6643 25.1927C39.655 25.1927 37.7923 25.8288 36.2688 26.9105L36.2982 26.8903C34.9195 27.873 34.0303 29.4643 34.0303 31.2647V31.2738C34.012 33.2135 35.409 34.8892 38.1847 36.2605C38.918 36.5813 39.5505 36.9737 40.117 37.4448L40.1042 37.4338C40.425 37.7052 40.6322 38.103 40.6487 38.5485V38.5522V38.5558C40.6487 39.1407 40.3003 39.643 39.798 39.8685L39.7888 39.8722C39.2388 40.1618 38.5862 40.3305 37.8932 40.3305C37.8657 40.3305 37.8363 40.3305 37.8088 40.3305H37.8125C37.7722 40.3305 37.7227 40.3305 37.675 40.3305C36.1038 40.3305 34.6152 39.9822 33.2805 39.3588L33.3447 39.3863L32.7158 39.071L32.7067 39.0637ZM51.2692 41.1555H57.3467C57.4444 41.5747 57.6357 42.4914 57.9205 43.9055H62.3333L58.4943 25.5153H54.8277C54.7635 25.5098 54.6883 25.5062 54.6113 25.5062C53.581 25.5062 52.6992 26.1442 52.3398 27.0462L52.3343 27.0627L45.2943 43.9055H50.281L51.282 41.1573L51.2692 41.1555ZM27.3002 25.5153L24.3192 43.9055H29.0748L32.054 25.5153H27.3002ZM9.02367 29.2682L12.892 43.8762H17.9043L25.3752 25.5153H20.3408L15.6952 38.0627L15.2075 35.5125L13.5502 27.0627C13.3833 26.1662 12.6078 25.4952 11.6747 25.4952C11.5793 25.4952 11.484 25.5025 11.3923 25.5153L11.4033 25.5135H3.72717L3.67033 25.8857C9.581 27.3872 13.464 30.6267 15.213 35.5107C14.6465 34.0587 13.8197 32.8212 12.782 31.8L12.7802 31.7982C11.7407 30.7312 10.4922 29.875 9.10067 29.2902L9.02733 29.2627L9.02367 29.2682ZM56.5748 37.3733H52.6148C52.8825 36.6669 53.5132 34.9558 54.5068 32.24L54.5912 31.9815C54.6682 31.7908 54.7635 31.5415 54.8845 31.2372C55.0055 30.9328 55.0862 30.6835 55.1412 30.4928L55.4858 32.0677L56.573 37.366L56.5748 37.3733Z" fill="#FAFAFA"/>
<g clip-path="url(#clip0_39_21)">
<path d="M139.916 11.3331H86.0831C85.5196 11.3133 84.9582 11.4097 84.4336 11.6163C83.909 11.8229 83.4325 12.1352 83.0339 12.5339C82.6352 12.9325 82.3229 13.409 82.1163 13.9336C81.9097 14.4582 81.8133 15.0196 81.8331 15.5831V52.4164C81.8133 52.9799 81.9097 53.5414 82.1163 54.066C82.3229 54.5905 82.6352 55.067 83.0339 55.4657C83.4325 55.8643 83.909 56.1767 84.4336 56.3832C84.9582 56.5898 85.5196 56.6862 86.0831 56.6664H139.916C140.48 56.6862 141.041 56.5898 141.566 56.3832C142.091 56.1767 142.567 55.8643 142.966 55.4657C143.364 55.067 143.677 54.5905 143.883 54.066C144.09 53.5414 144.186 52.9799 144.166 52.4164V15.5831C144.186 15.0196 144.09 14.4582 143.883 13.9336C143.677 13.409 143.364 12.9325 142.966 12.5339C142.567 12.1352 142.091 11.8229 141.566 11.6163C141.041 11.4097 140.48 11.3133 139.916 11.3331ZM138.5 50.9998H87.4998V16.9998H138.5V50.9998Z" fill="#FAFAFA"/>
<path d="M90.758 37.3998H92.1747C92.325 37.3998 92.4691 37.3401 92.5754 37.2338C92.6816 37.1275 92.7413 36.9834 92.7413 36.8331L93.308 34.5664C93.308 34.4161 93.3677 34.272 93.474 34.1657C93.5803 34.0595 93.7244 33.9998 93.8747 33.9998H94.2997C95.6685 34.0854 97.0235 33.684 98.1247 32.8664C98.5867 32.4927 98.9553 32.0164 99.2012 31.4754C99.4471 30.9345 99.5635 30.3436 99.5413 29.7498C99.5302 29.3105 99.434 28.8775 99.258 28.4748C99.1055 28.0918 98.8625 27.7516 98.5497 27.4831L97.4163 27.0581H92.883C92.7327 27.0581 92.5886 27.1178 92.4823 27.2241C92.376 27.3303 92.3163 27.4745 92.3163 27.6248L90.333 36.8331C90.333 37.1164 90.4747 37.3998 90.758 37.3998ZM93.8747 31.4498L94.2997 29.4664C94.2997 29.0414 94.583 28.8998 95.008 28.8998H95.433C95.8332 28.8437 96.2396 28.9453 96.5663 29.1831C96.7138 29.2663 96.833 29.3917 96.9087 29.5432C96.9844 29.6946 97.0132 29.8652 96.9913 30.0331C96.9971 30.309 96.9357 30.5822 96.8122 30.829C96.6888 31.0758 96.5072 31.2889 96.283 31.4498C95.9997 31.8748 95.433 32.0164 94.583 32.0164H94.2997C94.0163 32.0164 93.8747 31.7331 93.8747 31.4498Z" fill="#FAFAFA"/>
<path d="M104.075 32.2998H102.091L100.391 32.8664C99.8866 33.0792 99.4469 33.4213 99.1164 33.8581C98.9288 34.4053 98.8331 34.9797 98.8331 35.5581C98.8208 35.821 98.865 36.0835 98.9628 36.3279C99.0605 36.5723 99.2095 36.7929 99.3997 36.9748C99.7855 37.3325 100.29 37.5344 100.816 37.5414H101.666L102.233 37.2581L102.8 36.9748L103.366 36.5498V36.8331C103.225 37.1164 103.366 37.3998 103.65 37.3998H104.925C105.075 37.3998 105.219 37.3401 105.325 37.2338C105.432 37.1275 105.491 36.9834 105.491 36.8331L106.483 32.0164V31.3081C106.517 30.9927 106.454 30.6745 106.302 30.3961C106.15 30.1176 105.916 29.8922 105.633 29.7498C104.88 29.4033 104.051 29.2569 103.225 29.3248H101.1C100.937 29.3579 100.792 29.4469 100.688 29.5763C100.585 29.7058 100.53 29.8674 100.533 30.0331L100.25 30.7414C100.25 31.3081 100.533 31.1664 100.533 31.1664L101.383 30.8831H103.933C104.069 30.9419 104.183 31.0418 104.259 31.1689C104.336 31.296 104.37 31.4438 104.358 31.5914V31.8748L104.075 32.2998ZM103.65 35.1331V35.4164L103.083 35.8414H101.383L101.1 35.2748C101.109 34.9698 101.207 34.6743 101.383 34.4248L101.95 33.9998H103.933C103.881 34.3869 103.786 34.7671 103.65 35.1331Z" fill="#FAFAFA"/>
<path d="M128.867 32.2996H126.742L125.042 32.8663C124.577 33.0823 124.184 33.4263 123.908 33.858C123.599 34.3691 123.451 34.9615 123.483 35.558C123.471 35.8209 123.515 36.0834 123.613 36.3277C123.711 36.5721 123.86 36.7927 124.05 36.9746C124.453 37.3037 124.948 37.5014 125.467 37.5413H126.317L127.025 37.258L127.592 36.9746L128.017 36.5496V36.833C128.017 37.1163 128.158 37.3996 128.442 37.3996H129.717C130 37.3996 130.142 37.1163 130.283 36.833L131.275 32.0163V31.308C131.275 30.5996 131.133 30.033 130.567 29.7496C129.809 29.42 128.983 29.2744 128.158 29.3246H125.75C125.325 29.4663 125.183 30.033 125.183 30.033V30.7413C125.042 31.308 125.325 31.1663 125.467 31.1663L126.175 30.883H128.583C128.719 30.9417 128.834 31.0417 128.91 31.1688C128.986 31.2958 129.02 31.4436 129.008 31.5913V31.8746L128.867 32.2996ZM128.3 35.133V35.4163L127.733 35.8413H126.317L126.033 35.2746C126 34.9836 126.049 34.689 126.175 34.4246L126.742 33.9996H128.583C128.531 34.3868 128.436 34.7669 128.3 35.133Z" fill="#FAFAFA"/>
<path d="M115.408 37.3999H116.825C116.979 37.3686 117.124 37.3009 117.247 37.2023C117.371 37.1038 117.468 36.9772 117.533 36.8332L117.958 34.5666C117.958 34.4163 118.018 34.2722 118.124 34.1659C118.23 34.0596 118.374 33.9999 118.525 33.9999H118.95C120.358 34.0516 121.747 33.6548 122.916 32.8666C123.333 32.4941 123.664 32.0346 123.884 31.5206C124.104 31.0066 124.209 30.4505 124.191 29.8916C124.221 29.4148 124.174 28.9363 124.05 28.4749C123.766 28.0499 123.625 27.7666 123.2 27.6249C122.869 27.3529 122.482 27.1592 122.066 27.0582H117.675C117.509 27.0549 117.347 27.1098 117.218 27.2133C117.088 27.3169 116.999 27.4625 116.966 27.6249L114.983 36.8332C114.983 37.1166 115.125 37.3999 115.408 37.3999ZM118.525 31.4499L118.95 29.4666C119.014 29.3226 119.112 29.1961 119.235 29.0975C119.358 28.999 119.503 28.9312 119.658 28.8999H120.083C120.48 28.8866 120.872 28.9848 121.216 29.1832C121.364 29.2665 121.483 29.3919 121.559 29.5433C121.634 29.6947 121.663 29.8654 121.641 30.0333C121.676 30.2982 121.642 30.5676 121.543 30.8157C121.444 31.0638 121.283 31.2822 121.075 31.4499C120.845 31.655 120.575 31.8109 120.283 31.9084C119.991 32.0058 119.682 32.0426 119.375 32.0166H118.95C118.666 32.0166 118.525 31.7333 118.525 31.4499Z" fill="#FAFAFA"/>
<path d="M131.841 37.3998H133.116C133.264 37.4119 133.412 37.3775 133.539 37.3012C133.666 37.225 133.766 37.1108 133.825 36.9748L135.666 27.6248C135.666 27.3414 135.525 27.0581 135.241 27.0581H133.966C133.843 27.073 133.726 27.1201 133.626 27.1947C133.527 27.2693 133.449 27.3688 133.4 27.4831V27.7664L131.7 36.4081V36.8331C131.558 37.1164 131.7 37.3998 131.841 37.3998Z" fill="#FAFAFA"/>
<path d="M107.333 41.0832H108.75C108.926 41.0618 109.094 40.9994 109.242 40.901C109.39 40.8026 109.512 40.6709 109.6 40.5165L114.983 30.3165C114.983 30.3165 115.55 29.3248 115.125 29.4665H113.425C113.245 29.4749 113.071 29.5321 112.921 29.632C112.771 29.7318 112.651 29.8705 112.575 30.0332C112.575 30.0332 110.591 33.7165 110.45 34.1415H110.308L109.6 30.0332C109.566 29.8708 109.477 29.7251 109.348 29.6216C109.219 29.518 109.057 29.4631 108.891 29.4665H107.616C107.333 29.4665 107.191 29.6082 107.333 30.0332C107.475 30.4582 108.183 35.8415 108.325 37.2582C108.466 38.6748 108.325 38.1082 108.325 38.1082L107.191 40.5165C107.05 40.7998 107.05 41.0832 107.333 41.0832Z" fill="#FAFAFA"/>
</g>
<defs>
<clipPath id="clip0_39_21">
<rect width="68" height="68" fill="white" transform="translate(79)"/>
</clipPath>
</defs>
</svg>
