<svg width="197" height="52" viewBox="0 0 197 52" fill="none" xmlns="http://www.w3.org/2000/svg">
<path d="M192.455 0H151.545C149.034 0 147 2.07477 147 4.63636V46.3636C147 48.9252 149.034 51 151.545 51H192.455C194.966 51 197 48.9252 197 46.3636V4.63636C197 2.07477 194.964 0 192.455 0ZM189.475 21.9625C189.18 21.9903 188.882 22.0088 188.582 22.0088C185.184 22.0088 182.198 20.2285 180.459 17.5324C180.459 24.6005 180.459 32.6446 180.459 32.7791C180.459 39.0034 175.511 44.0478 169.411 44.0478C163.311 44.0455 158.364 38.9988 158.364 32.7768C158.364 26.5525 163.311 21.5081 169.411 21.5081C169.643 21.5081 169.868 21.529 170.093 21.5429V27.0972C169.866 27.0694 169.645 27.0277 169.411 27.0277C166.298 27.0277 163.773 29.6032 163.773 32.7791C163.773 35.955 166.295 38.5305 169.411 38.5305C172.527 38.5305 175.277 36.0269 175.277 32.851C175.277 32.7235 175.332 6.95686 175.332 6.95686H180.534C181.023 11.7022 184.78 15.4484 189.475 15.7915V21.9625Z" fill="#FAFAFA"/>
<path d="M40.1011 36.4404H36.4922C35.1257 36.4404 34.7034 35.3539 32.2488 32.8662C30.1106 30.7959 29.1649 30.5177 28.6399 30.5177C27.9028 30.5177 27.6925 30.728 27.6925 31.745V35.0045C27.6925 35.8823 27.4126 36.4073 25.0988 36.4073C20.4315 36.0943 16.4201 33.5486 14.0914 29.8386L14.0566 29.7807C11.3536 26.4234 9.36112 22.3772 8.37566 17.9517L8.33922 17.7579C8.33922 17.2329 8.54956 16.741 9.5665 16.741H13.1755C14.0864 16.741 14.4375 17.1617 14.7903 18.1422C16.5757 23.2964 19.557 27.818 20.7843 27.818C21.2397 27.818 21.4501 27.6077 21.4501 26.4516V21.1201C21.3093 18.6656 20.0125 18.4569 20.0125 17.5807C20.0274 17.112 20.4116 16.7377 20.882 16.7377C20.8969 16.7377 20.9102 16.7377 20.9251 16.7393H20.9234H26.6027C27.3745 16.7393 27.6544 17.16 27.6544 18.071V25.2591C27.6544 26.0292 28.0055 26.3108 28.2159 26.3108C28.6713 26.3108 29.0589 26.0292 29.8986 25.1895C31.6443 23.0579 33.1366 20.6199 34.2744 17.9915L34.3506 17.7927C34.5908 17.1915 35.1672 16.7741 35.8413 16.7741C35.8727 16.7741 35.9025 16.7758 35.934 16.7774H35.929H39.538C40.6245 16.7774 40.8713 17.3356 40.6245 18.1091C39.1769 21.2973 37.5505 24.0368 35.6657 26.5742L35.7518 26.4516C35.3676 27.0826 35.2268 27.3625 35.7518 28.0664C36.1361 28.5915 37.3998 29.678 38.2412 30.6601C39.4585 31.8642 40.4787 33.2654 41.2489 34.8123L41.2903 34.9034C41.6414 35.9171 41.1147 36.4437 40.0978 36.4437L40.1011 36.4404ZM32.4608 1H17.2118C3.29428 1 0 4.29428 0 18.2118V33.4608C0 47.3783 3.29428 50.6726 17.2118 50.6726H32.4608C46.3783 50.6726 49.6726 47.3783 49.6726 33.4608V18.2118C49.6726 4.29428 46.3419 1 32.4608 1Z" fill="#FAFAFA"/>
<path d="M98.6667 0C93.5904 0 88.6279 1.50532 84.407 4.3256C80.1862 7.14589 76.8964 11.1545 74.9538 15.8444C73.0111 20.5343 72.5028 25.6952 73.4932 30.6739C74.4835 35.6529 76.9281 40.2261 80.5176 43.8159C84.1072 47.4054 88.6805 49.8498 93.6594 50.8402C98.6381 51.8306 103.799 51.3221 108.489 49.3795C113.179 47.4368 117.187 44.1473 120.008 39.9264C122.828 35.7055 124.333 30.7432 124.333 25.6667C124.333 18.8594 121.629 12.331 116.816 7.51761C112.002 2.70414 105.474 0 98.6667 0ZM111.275 17.5817L107.072 37.4412C106.752 38.8529 105.917 39.1737 104.73 38.5321L98.3137 33.7837L95.1054 36.7675C94.9543 36.9648 94.7602 37.1252 94.5379 37.2366C94.3155 37.3476 94.0707 37.4066 93.8221 37.4092L94.2712 30.9925L106.142 20.2446C106.687 19.7954 106.142 19.5387 105.372 19.9879L90.8062 29.1317L84.3896 27.1425C83.01 26.7254 82.9779 25.7629 84.6783 25.1212L109.415 15.4962C110.634 15.1433 111.66 15.8492 111.275 17.5817Z" fill="#FAFAFA"/>
</svg>
